<?xml version="1.0" encoding="UTF-8"?>
<svg id="Layer_1" data-name="Layer 1" xmlns="http://www.w3.org/2000/svg" viewBox="0 0 1133.86 283.46">
  <defs>
    <style>
      .cls-1 {
        fill: #006ef7;
        fill-rule: evenodd;
      }
    </style>
  </defs>
  <path class="cls-1" d="M997.59,45.87h-76.49l-108.16,191.72h67.61l18.86-33.43h119.86l18.86,33.43h67.61l-108.16-191.72ZM923.61,161.28l35.74-63.35,35.74,63.35h-71.48Z"/>
  <polygon class="cls-1" points="28.1 237.59 28.1 45.87 129.92 45.87 245.79 184.86 245.79 45.87 305.18 45.87 305.18 237.59 203.36 237.59 87.49 97.33 87.49 237.59 28.1 237.59 28.1 237.59"/>
  <polygon class="cls-1" points="601.44 45.87 709.6 237.59 718.47 237.59 777.21 237.59 786.08 237.59 894.25 45.87 826.63 45.87 747.84 185.54 669.05 45.87 601.44 45.87 601.44 45.87"/>
  <path class="cls-1" d="M546.5,45.87h-170.81c-25.9,0-47.09,21.27-47.09,47.26v97.2c0,25.99,21.2,47.26,47.09,47.26h170.81c25.88,0,47.09-18.22,47.09-44.2v-101.79c0-25.98-21.19-45.73-47.09-45.73ZM535.9,177.1c0,5.81-4.78,10.6-10.56,10.6h-128.48c-5.79,0-10.56-4.77-10.56-10.6v-70.73c0-5.83,4.75-10.6,10.56-10.6h128.48c5.81,0,10.56,4.79,10.56,10.6v70.73Z"/>
</svg>